<svg xmlns="http://www.w3.org/2000/svg" viewBox="0 0 69.96 76.49"><defs><style> .cls-x{fill:#5752af;}</style></defs><title>Asset 1</title><g id="Layer_2" data-name="Layer 2"><g id="Layer_1-2" data-name="Layer 1"><path class="cls-x" d="M14,76.49a14,14,0,0,1-7-1.9A13.89,13.89,0,0,1,0,62.43V14.06A13.89,13.89,0,0,1,7,1.9a13.92,13.92,0,0,1,14,0L63,26.09A14,14,0,0,1,63,50.4L21.05,74.59A13.94,13.94,0,0,1,14,76.49ZM14,6a8.07,8.07,0,0,0-8,8.05V62.43a8,8,0,0,0,12.05,7L60,45.2a8,8,0,0,0,0-13.91L18.05,7.1A7.93,7.93,0,0,0,14,6Z"/></g></g></svg>