<svg xmlns="http://www.w3.org/2000/svg" viewBox="0 0 67.66 70.99"><defs><style> .cls-y{fill:#b02d4a;}</style></defs><title>Asset 3</title><g id="Layer_2" data-name="Layer 2"><g id="Layer_1-2" data-name="Layer 1"><path class="cls-y" d="M67.66,35.49A35.09,35.09,0,0,1,49.94,66.2,35.39,35.39,0,0,1,3.3,56.08a3.2,3.2,0,0,1,5.2-3.72,29,29,0,0,0,38.24,8.29,29.06,29.06,0,0,0,0-50.32c-14.12-8.15-29.41-2.68-37.21,7l-.07.08,1.45-.07a2.14,2.14,0,0,1,.22,4.27L2.24,22h-.1A2.18,2.18,0,0,1,.62,21.4,2.18,2.18,0,0,1,0,19.78L.47,10.9a2.11,2.11,0,0,1,2.24-2,2.12,2.12,0,0,1,2,2.24l-.11,2.05A35.39,35.39,0,0,1,49.94,4.79,35.08,35.08,0,0,1,67.66,35.49Z"/></g></g></svg>